<svg xmlns="http://www.w3.org/2000/svg" xmlns:xlink="http://www.w3.org/1999/xlink" version="1.1" width="256" height="256" viewBox="0 0 256 256" xml:space="preserve">

<defs>
</defs>
<g style="stroke: none; stroke-width: 0; stroke-dasharray: none; stroke-linecap: butt; stroke-linejoin: miter; stroke-miterlimit: 10; fill: none; fill-rule: nonzero; opacity: 1;" transform="translate(1.4065934065934016 1.4065934065934016) scale(2.81 2.81)" >
	<path d="M 66.785 18.921 H 45 c -0.419 0 -0.793 -0.261 -0.938 -0.654 c -0.145 -0.393 -0.03 -0.835 0.289 -1.107 L 60.919 3.016 c 2.713 -2.315 6.409 -2.828 9.649 -1.333 c 3.239 1.494 5.251 4.637 5.251 8.204 C 75.819 14.869 71.767 18.921 66.785 18.921 z M 47.712 16.921 h 19.073 c 3.879 0 7.034 -3.156 7.034 -7.035 c 0 -2.777 -1.566 -5.225 -4.089 -6.388 c -2.521 -1.163 -5.4 -0.765 -7.513 1.039 L 47.712 16.921 z" style="stroke: none; stroke-width: 1; stroke-dasharray: none; stroke-linecap: butt; stroke-linejoin: miter; stroke-miterlimit: 10; fill: rgb(0,0,0); fill-rule: nonzero; opacity: 1;" transform=" matrix(1 0 0 1 0 0) " stroke-linecap="round" />
	<path d="M 45 18.921 H 23.215 c -4.982 0 -9.035 -4.053 -9.035 -9.035 c 0 -3.567 2.012 -6.71 5.251 -8.204 c 3.239 -1.493 6.937 -0.982 9.649 1.333 l 16.568 14.145 c 0.318 0.272 0.434 0.714 0.289 1.107 C 45.793 18.66 45.419 18.921 45 18.921 z M 23.235 2.841 c -0.999 0 -2.008 0.216 -2.966 0.658 c -2.522 1.163 -4.089 3.61 -4.089 6.388 c 0 3.879 3.156 7.035 7.035 7.035 h 19.074 L 27.782 4.537 C 26.472 3.418 24.867 2.841 23.235 2.841 z" style="stroke: none; stroke-width: 1; stroke-dasharray: none; stroke-linecap: butt; stroke-linejoin: miter; stroke-miterlimit: 10; fill: rgb(0,0,0); fill-rule: nonzero; opacity: 1;" transform=" matrix(1 0 0 1 0 0) " stroke-linecap="round" />
	<path d="M 82.36 89.163 H 7.64 c -4.213 0 -7.64 -3.427 -7.64 -7.64 V 24.561 c 0 -4.212 3.427 -7.64 7.64 -7.64 h 74.72 c 4.213 0 7.64 3.427 7.64 7.64 v 56.962 C 90 85.736 86.573 89.163 82.36 89.163 z M 7.64 18.921 c -3.11 0 -5.64 2.53 -5.64 5.64 v 56.962 c 0 3.109 2.53 5.64 5.64 5.64 h 74.72 c 3.109 0 5.64 -2.53 5.64 -5.64 V 24.561 c 0 -3.11 -2.53 -5.64 -5.64 -5.64 H 7.64 z" style="stroke: none; stroke-width: 1; stroke-dasharray: none; stroke-linecap: butt; stroke-linejoin: miter; stroke-miterlimit: 10; fill: rgb(0,0,0); fill-rule: nonzero; opacity: 1;" transform=" matrix(1 0 0 1 0 0) " stroke-linecap="round" />
	<path d="M 45 89.163 c -0.552 0 -1 -0.447 -1 -1 V 17.921 c 0 -0.552 0.448 -1 1 -1 s 1 0.448 1 1 v 70.242 C 46 88.716 45.552 89.163 45 89.163 z" style="stroke: none; stroke-width: 1; stroke-dasharray: none; stroke-linecap: butt; stroke-linejoin: miter; stroke-miterlimit: 10; fill: rgb(0,0,0); fill-rule: nonzero; opacity: 1;" transform=" matrix(1 0 0 1 0 0) " stroke-linecap="round" />
</g>
</svg>