<svg xmlns="http://www.w3.org/2000/svg" xmlns:xlink="http://www.w3.org/1999/xlink" version="1.1" width="256" height="256" viewBox="0 0 256 256" xml:space="preserve">

<defs>
</defs>
<g style="stroke: none; stroke-width: 0; stroke-dasharray: none; stroke-linecap: butt; stroke-linejoin: miter; stroke-miterlimit: 10; fill: none; fill-rule: nonzero; opacity: 1;" transform="translate(1.4065934065934016 1.4065934065934016) scale(2.81 2.81)" >
	<path d="M 15.274 62.817 v 0.555 c 0 0.553 0.448 1 1 1 s 1 -0.447 1 -1 v -0.599 c 0.054 -0.017 0.11 -0.025 0.163 -0.045 c 0.886 -0.332 1.59 -0.99 1.981 -1.852 s 0.424 -1.824 0.092 -2.71 c -0.394 -1.051 -1.24 -1.836 -2.257 -2.131 l -1.333 -0.487 c -0.47 -0.138 -0.838 -0.479 -1.009 -0.934 c -0.299 -0.797 0.106 -1.688 0.903 -1.987 c 0.795 -0.302 1.688 0.106 1.987 0.902 c 0.194 0.519 0.771 0.778 1.288 0.586 c 0.517 -0.194 0.779 -0.771 0.585 -1.287 c -0.333 -0.887 -0.99 -1.591 -1.852 -1.982 c -0.178 -0.081 -0.363 -0.137 -0.548 -0.187 v -0.55 c 0 -0.553 -0.448 -1 -1 -1 s -1 0.447 -1 1 v 0.601 c -0.054 0.017 -0.109 0.023 -0.163 0.043 c -1.829 0.687 -2.759 2.732 -2.073 4.563 c 0.395 1.051 1.24 1.835 2.256 2.13 l 1.333 0.487 c 0.471 0.138 0.839 0.479 1.01 0.936 c 0.145 0.385 0.13 0.804 -0.041 1.18 c -0.17 0.375 -0.477 0.661 -0.863 0.806 c -0.796 0.296 -1.688 -0.106 -1.987 -0.902 c -0.194 -0.519 -0.77 -0.777 -1.288 -0.586 c -0.517 0.194 -0.779 0.771 -0.585 1.287 c 0.333 0.887 0.99 1.591 1.852 1.982 C 14.905 62.716 15.09 62.767 15.274 62.817 z" style="stroke: none; stroke-width: 1; stroke-dasharray: none; stroke-linecap: butt; stroke-linejoin: miter; stroke-miterlimit: 10; fill: rgb(0,0,0); fill-rule: nonzero; opacity: 1;" transform=" matrix(1 0 0 1 0 0) " stroke-linecap="round" />
	<path d="M 13.271 46.979 c -0.212 -0.51 -0.797 -0.751 -1.308 -0.537 c -1.349 0.564 -2.555 1.372 -3.585 2.402 c -1.03 1.031 -1.838 2.237 -2.402 3.585 c -0.213 0.509 0.027 1.095 0.536 1.309 c 0.126 0.053 0.257 0.077 0.386 0.077 c 0.391 0 0.763 -0.23 0.923 -0.614 c 0.463 -1.106 1.126 -2.097 1.972 -2.942 c 0.845 -0.845 1.835 -1.508 2.942 -1.971 C 13.244 48.073 13.484 47.488 13.271 46.979 z" style="stroke: none; stroke-width: 1; stroke-dasharray: none; stroke-linecap: butt; stroke-linejoin: miter; stroke-miterlimit: 10; fill: rgb(0,0,0); fill-rule: nonzero; opacity: 1;" transform=" matrix(1 0 0 1 0 0) " stroke-linecap="round" />
	<path d="M 48.518 51.82 c 0.244 0 0.489 -0.089 0.682 -0.269 l 12.833 -11.955 l 6.176 6.574 c 0.184 0.195 0.438 0.309 0.707 0.314 c 0.269 -0.008 0.528 -0.097 0.72 -0.284 l 10.719 -10.463 v 5.426 c 0 0.552 0.447 1 1 1 s 1 -0.448 1 -1 v -7.799 c 0 -0.039 -0.018 -0.072 -0.022 -0.11 c -0.01 -0.091 -0.019 -0.181 -0.054 -0.267 c -0.033 -0.081 -0.088 -0.147 -0.14 -0.216 c -0.026 -0.034 -0.038 -0.074 -0.068 -0.106 c -0.002 -0.002 -0.004 -0.002 -0.005 -0.004 c -0.091 -0.093 -0.2 -0.168 -0.322 -0.219 c -0.122 -0.051 -0.251 -0.076 -0.381 -0.077 c -0.003 0 -0.005 -0.001 -0.007 -0.001 h -7.8 c -0.553 0 -1 0.448 -1 1 s 0.447 1 1 1 h 5.344 l -9.93 9.693 l -6.16 -6.557 c -0.376 -0.401 -1.007 -0.423 -1.41 -0.047 L 47.836 50.089 c -0.404 0.376 -0.427 1.009 -0.05 1.413 C 47.982 51.714 48.25 51.82 48.518 51.82 z" style="stroke: none; stroke-width: 1; stroke-dasharray: none; stroke-linecap: butt; stroke-linejoin: miter; stroke-miterlimit: 10; fill: rgb(0,0,0); fill-rule: nonzero; opacity: 1;" transform=" matrix(1 0 0 1 0 0) " stroke-linecap="round" />
	<path d="M 89 24.755 H 42.739 c -0.008 -0.014 -0.016 -0.029 -0.025 -0.042 c 0.345 -0.542 0.556 -1.259 0.556 -2.078 v -2.623 c 0 -1.727 -0.936 -3.028 -2.176 -3.028 H 14.917 c -1.24 0 -2.176 1.302 -2.176 3.028 v 2.623 c 0 0.818 0.211 1.535 0.556 2.078 c -0.345 0.532 -0.556 1.24 -0.556 2.048 v 2.623 c 0 0.818 0.211 1.535 0.556 2.078 c -0.345 0.532 -0.556 1.24 -0.556 2.048 v 2.623 c 0 0.818 0.211 1.535 0.556 2.078 c -0.345 0.532 -0.556 1.24 -0.556 2.048 v 0.606 C 5.463 42.483 0 48.982 0 56.741 c 0 8.419 6.427 15.365 14.632 16.191 c 0.088 0.02 0.192 0.039 0.326 0.039 h 0.449 c 0.289 0.015 0.575 0.044 0.868 0.044 s 0.579 -0.029 0.868 -0.044 h 23.912 H 89 c 0.553 0 1 -0.447 1 -1 V 25.755 C 90 25.203 89.553 24.755 89 24.755 z M 29.556 47.368 c -0.168 -0.239 -0.343 -0.471 -0.523 -0.7 c -0.113 -0.143 -0.225 -0.286 -0.343 -0.426 c -0.073 -0.087 -0.138 -0.179 -0.213 -0.264 h 12.519 c 0.007 0.009 0.017 0.028 0.025 0.039 c 0.019 0.026 0.037 0.05 0.058 0.091 c 0.013 0.025 0.026 0.063 0.039 0.093 c 0.017 0.04 0.035 0.074 0.051 0.123 c 0.018 0.056 0.032 0.127 0.047 0.194 c 0.008 0.037 0.019 0.066 0.026 0.107 c 0.018 0.114 0.03 0.241 0.03 0.381 v 2.623 c 0 0.153 -0.013 0.291 -0.033 0.414 c -0.009 0.056 -0.024 0.097 -0.036 0.146 c -0.015 0.06 -0.027 0.126 -0.044 0.177 c -0.016 0.047 -0.034 0.079 -0.051 0.118 c -0.016 0.037 -0.032 0.082 -0.049 0.111 c -0.015 0.027 -0.027 0.039 -0.04 0.06 c -0.017 0.025 -0.035 0.056 -0.049 0.071 h -9.582 c -0.001 -0.003 -0.003 -0.006 -0.004 -0.009 c -0.14 -0.349 -0.297 -0.689 -0.46 -1.026 c -0.058 -0.122 -0.114 -0.244 -0.176 -0.364 c -0.14 -0.272 -0.29 -0.538 -0.445 -0.801 c -0.109 -0.187 -0.22 -0.371 -0.337 -0.553 C 29.832 47.768 29.697 47.566 29.556 47.368 z M 41.27 56.377 c 0 0.153 -0.013 0.291 -0.033 0.414 c -0.009 0.056 -0.024 0.097 -0.036 0.146 c -0.015 0.06 -0.027 0.126 -0.044 0.177 c -0.016 0.047 -0.034 0.079 -0.051 0.118 c -0.016 0.037 -0.032 0.082 -0.049 0.111 c -0.015 0.027 -0.027 0.039 -0.04 0.06 c -0.017 0.025 -0.035 0.056 -0.049 0.071 h -8.436 c 0.012 -0.25 0.019 -0.494 0.019 -0.733 c 0 -0.476 -0.029 -0.952 -0.072 -1.427 c -0.012 -0.141 -0.024 -0.281 -0.04 -0.42 c -0.047 -0.404 -0.107 -0.807 -0.185 -1.209 c -0.045 -0.236 -0.102 -0.468 -0.158 -0.7 c -0.021 -0.086 -0.036 -0.173 -0.058 -0.258 h 8.959 c 0.008 0.009 0.018 0.03 0.027 0.042 c 0.018 0.026 0.036 0.049 0.056 0.088 c 0.014 0.027 0.028 0.067 0.042 0.101 c 0.016 0.038 0.033 0.07 0.048 0.116 c 0.018 0.056 0.032 0.127 0.047 0.194 c 0.008 0.037 0.019 0.066 0.026 0.107 c 0.018 0.114 0.03 0.241 0.03 0.381 V 56.377 z M 31.162 63.289 c 0.092 -0.208 0.174 -0.42 0.257 -0.633 c 0.11 -0.283 0.219 -0.567 0.314 -0.856 c 0.077 -0.235 0.142 -0.474 0.208 -0.713 c 0.061 -0.219 0.119 -0.439 0.17 -0.66 c 0.058 -0.249 0.112 -0.5 0.158 -0.753 c 0.012 -0.067 0.031 -0.133 0.042 -0.2 h 8.683 c 0.008 0.009 0.018 0.03 0.027 0.042 c 0.018 0.026 0.036 0.049 0.056 0.088 c 0.014 0.027 0.028 0.067 0.042 0.101 c 0.016 0.038 0.033 0.07 0.048 0.116 c 0.018 0.056 0.032 0.127 0.047 0.194 c 0.008 0.037 0.019 0.066 0.026 0.107 c 0.018 0.114 0.03 0.241 0.03 0.381 v 2.622 c 0 0.153 -0.013 0.292 -0.033 0.415 c -0.01 0.058 -0.025 0.102 -0.038 0.153 c -0.014 0.057 -0.026 0.122 -0.043 0.17 c -0.019 0.056 -0.04 0.095 -0.06 0.14 c -0.013 0.029 -0.026 0.066 -0.039 0.089 C 41.036 64.13 41.018 64.15 41 64.175 c -0.011 0.015 -0.024 0.038 -0.034 0.048 H 30.725 C 30.883 63.918 31.024 63.604 31.162 63.289 z M 14.742 36.132 v -2.623 c 0 -0.565 0.176 -0.914 0.274 -1.028 h 25.98 c 0.014 0.016 0.032 0.048 0.048 0.073 c 0.012 0.019 0.023 0.031 0.036 0.055 c 0.011 0.022 0.022 0.055 0.034 0.08 c 0.019 0.043 0.039 0.081 0.056 0.135 c 0.011 0.035 0.019 0.082 0.029 0.122 c 0.015 0.058 0.032 0.111 0.042 0.178 c 0.018 0.114 0.029 0.242 0.029 0.384 v 2.623 c 0 0.153 -0.013 0.292 -0.033 0.415 c -0.007 0.042 -0.019 0.073 -0.028 0.112 c -0.017 0.074 -0.032 0.152 -0.053 0.212 c -0.011 0.033 -0.024 0.053 -0.035 0.082 c -0.022 0.052 -0.043 0.109 -0.065 0.147 c -0.011 0.021 -0.02 0.029 -0.031 0.046 c -0.02 0.031 -0.041 0.066 -0.058 0.083 H 15.044 C 14.942 37.118 14.742 36.741 14.742 36.132 z M 14.742 26.761 c 0 -0.558 0.178 -0.913 0.274 -1.028 h 25.979 c 0.045 0.053 0.107 0.164 0.161 0.318 c 0.002 0.007 0.002 0.013 0.004 0.02 c 0.073 0.218 0.109 0.45 0.109 0.69 v 2.623 c 0 0.153 -0.013 0.292 -0.033 0.415 c -0.009 0.051 -0.022 0.089 -0.033 0.134 c -0.015 0.065 -0.029 0.135 -0.047 0.189 c -0.014 0.042 -0.03 0.069 -0.045 0.104 c -0.019 0.043 -0.037 0.093 -0.055 0.126 c -0.013 0.024 -0.024 0.034 -0.036 0.053 c -0.019 0.028 -0.038 0.061 -0.053 0.077 H 15.044 c -0.102 -0.112 -0.302 -0.489 -0.302 -1.098 V 26.761 z M 14.742 20.013 c 0 -0.558 0.178 -0.914 0.274 -1.028 h 25.979 c 0.096 0.115 0.274 0.47 0.274 1.028 v 2.623 c 0 0.609 -0.2 0.986 -0.302 1.098 H 15.044 c -0.102 -0.112 -0.302 -0.489 -0.302 -1.098 V 20.013 z M 14.742 40.258 c 0 -0.558 0.178 -0.914 0.274 -1.028 h 25.979 c 0.01 0.011 0.022 0.035 0.033 0.051 c 0.016 0.024 0.032 0.043 0.05 0.078 c 0.019 0.037 0.038 0.088 0.057 0.136 c 0.011 0.028 0.023 0.049 0.033 0.081 c 0.021 0.064 0.037 0.143 0.053 0.221 c 0.006 0.028 0.014 0.05 0.019 0.08 c 0.018 0.114 0.03 0.241 0.03 0.381 v 2.623 c 0 0.153 -0.013 0.292 -0.033 0.415 c -0.007 0.042 -0.019 0.073 -0.028 0.112 c -0.017 0.074 -0.032 0.152 -0.053 0.212 c -0.011 0.033 -0.024 0.053 -0.035 0.082 c -0.022 0.052 -0.043 0.109 -0.065 0.147 c -0.011 0.021 -0.02 0.029 -0.031 0.046 c -0.02 0.031 -0.041 0.066 -0.058 0.083 H 26.371 c -0.316 -0.25 -0.643 -0.482 -0.975 -0.707 c -0.011 -0.008 -0.022 -0.017 -0.034 -0.024 c -0.427 -0.288 -0.866 -0.556 -1.317 -0.801 c -0.064 -0.035 -0.133 -0.064 -0.198 -0.098 c -0.362 -0.19 -0.728 -0.37 -1.102 -0.532 c -0.189 -0.082 -0.383 -0.152 -0.575 -0.227 c -0.262 -0.102 -0.523 -0.201 -0.79 -0.29 c -0.22 -0.073 -0.443 -0.138 -0.668 -0.202 c -0.257 -0.073 -0.515 -0.14 -0.776 -0.2 c -0.223 -0.052 -0.446 -0.101 -0.672 -0.143 c -0.298 -0.056 -0.597 -0.098 -0.898 -0.138 c -0.192 -0.025 -0.381 -0.055 -0.575 -0.073 c -0.503 -0.047 -1.008 -0.077 -1.516 -0.077 c -0.517 0 -1.028 0.03 -1.533 0.078 V 40.258 z M 2 56.741 c 0 -7.063 5.16 -12.928 11.906 -14.062 c 0 0 0.001 0 0.001 0 c 0.408 -0.068 0.795 -0.117 1.17 -0.153 c 0.396 -0.033 0.794 -0.061 1.198 -0.061 c 0.454 0 0.903 0.026 1.346 0.068 c 0.177 0.017 0.352 0.046 0.527 0.069 c 0.262 0.035 0.523 0.071 0.78 0.119 c 0.208 0.039 0.413 0.088 0.619 0.137 c 0.222 0.052 0.444 0.108 0.662 0.171 c 0.207 0.06 0.413 0.124 0.617 0.193 c 0.22 0.074 0.438 0.155 0.653 0.239 c 0.185 0.073 0.371 0.146 0.553 0.227 c 0.247 0.11 0.489 0.229 0.729 0.352 c 0.14 0.071 0.281 0.139 0.418 0.215 c 0.32 0.178 0.632 0.369 0.937 0.57 c 0.052 0.034 0.107 0.064 0.158 0.099 c 0.734 0.498 1.417 1.064 2.045 1.686 c 0.036 0.036 0.071 0.073 0.107 0.109 c 0.268 0.271 0.524 0.554 0.769 0.846 c 0.042 0.05 0.087 0.099 0.128 0.15 c 0.25 0.306 0.486 0.624 0.711 0.95 c 0.088 0.129 0.17 0.263 0.254 0.395 c 0.119 0.186 0.233 0.374 0.344 0.566 c 0.109 0.19 0.217 0.379 0.317 0.574 c 0.053 0.103 0.1 0.209 0.151 0.313 c 0.223 0.46 0.424 0.931 0.597 1.416 c 0.02 0.057 0.042 0.112 0.062 0.169 c 0.111 0.323 0.207 0.647 0.295 0.973 c 0.025 0.095 0.05 0.191 0.074 0.287 c 0.071 0.286 0.132 0.574 0.185 0.862 c 0.033 0.187 0.06 0.376 0.086 0.565 c 0.031 0.218 0.063 0.436 0.084 0.654 c 0.039 0.429 0.066 0.862 0.066 1.301 c 0 0.399 -0.028 0.791 -0.06 1.182 c -0.013 0.145 -0.021 0.283 -0.038 0.435 c -0.001 0.006 -0.002 0.011 -0.003 0.017 c -0.06 0.524 -0.154 1.043 -0.271 1.556 c -0.023 0.102 -0.052 0.201 -0.078 0.302 c -0.104 0.413 -0.226 0.821 -0.367 1.222 c -0.047 0.133 -0.095 0.265 -0.145 0.396 c -0.138 0.36 -0.294 0.712 -0.46 1.059 c -0.07 0.145 -0.135 0.293 -0.21 0.436 c -0.184 0.352 -0.388 0.693 -0.601 1.028 c -0.071 0.111 -0.132 0.229 -0.206 0.338 c -0.278 0.411 -0.578 0.804 -0.895 1.18 c -0.107 0.128 -0.225 0.246 -0.336 0.37 c -0.244 0.27 -0.492 0.535 -0.754 0.784 c -0.103 0.099 -0.211 0.193 -0.317 0.288 c -0.313 0.28 -0.635 0.549 -0.97 0.8 c -0.061 0.046 -0.122 0.093 -0.184 0.138 c -2.191 1.582 -4.817 2.545 -7.566 2.7 c -0.002 0 -0.003 0.001 -0.004 0.001 c -0.269 0.015 -0.534 0.041 -0.807 0.041 s -0.538 -0.026 -0.807 -0.041 c -0.002 0 -0.003 -0.001 -0.004 -0.001 l -0.112 -0.005 c -0.142 -0.009 -0.286 -0.008 -0.427 -0.022 c -0.017 -0.001 -0.035 -0.001 -0.052 -0.003 c 0 0 -0.001 0 -0.001 0 C 7.656 70.236 2 64.138 2 56.741 z M 25.638 70.03 c 0.023 -0.016 0.044 -0.034 0.066 -0.05 c 0.422 -0.301 0.828 -0.621 1.219 -0.961 c 0.128 -0.11 0.25 -0.226 0.374 -0.34 c 0.276 -0.255 0.544 -0.517 0.802 -0.79 c 0.161 -0.17 0.318 -0.342 0.471 -0.518 c 0.211 -0.244 0.411 -0.495 0.608 -0.751 c 0.104 -0.135 0.221 -0.257 0.32 -0.396 h 11.498 c 0.006 0.007 0.014 0.022 0.02 0.031 c 0.02 0.027 0.041 0.054 0.063 0.098 c 0.005 0.009 0.01 0.025 0.014 0.035 c 0.026 0.052 0.051 0.109 0.075 0.181 c 0.007 0.021 0.011 0.051 0.018 0.074 c 0.02 0.07 0.04 0.14 0.053 0.225 c 0.018 0.114 0.029 0.242 0.029 0.384 v 2.623 c 0 0.153 -0.013 0.291 -0.033 0.414 c -0.009 0.056 -0.024 0.097 -0.036 0.146 c -0.015 0.06 -0.027 0.126 -0.044 0.177 c -0.016 0.047 -0.034 0.079 -0.051 0.118 c -0.016 0.037 -0.032 0.082 -0.049 0.111 c -0.015 0.027 -0.027 0.039 -0.04 0.06 c -0.017 0.025 -0.035 0.056 -0.049 0.071 H 24.152 C 24.666 70.686 25.16 70.368 25.638 70.03 z M 88 70.972 h -5.87 V 48.451 c 0 -0.553 -0.447 -1 -1 -1 s -1 0.447 -1 1 v 22.521 h -8.871 V 54.933 c 0 -0.553 -0.447 -1 -1 -1 s -1 0.447 -1 1 v 16.039 h -8.87 V 51.037 c 0 -0.553 -0.447 -1 -1 -1 s -1 0.447 -1 1 v 19.935 h -8.871 V 58.915 c 0 -0.553 -0.447 -1 -1 -1 s -1 0.447 -1 1 v 12.057 h -4.38 c 0.025 -0.097 0.039 -0.203 0.057 -0.305 c 0.011 -0.062 0.026 -0.122 0.035 -0.186 c 0.026 -0.196 0.041 -0.397 0.041 -0.607 v -2.623 c 0 -0.208 -0.015 -0.41 -0.041 -0.604 c -0.009 -0.07 -0.028 -0.134 -0.04 -0.203 c -0.022 -0.119 -0.043 -0.239 -0.075 -0.352 c -0.024 -0.086 -0.057 -0.163 -0.086 -0.244 c -0.031 -0.084 -0.059 -0.17 -0.095 -0.249 c -0.042 -0.092 -0.091 -0.175 -0.14 -0.26 c -0.025 -0.043 -0.044 -0.091 -0.071 -0.132 c 0.036 -0.056 0.063 -0.122 0.096 -0.183 c 0.036 -0.066 0.073 -0.13 0.106 -0.201 c 0.043 -0.095 0.078 -0.197 0.113 -0.299 c 0.025 -0.071 0.053 -0.139 0.073 -0.213 c 0.034 -0.119 0.056 -0.246 0.079 -0.373 c 0.012 -0.066 0.029 -0.128 0.038 -0.196 c 0.027 -0.199 0.042 -0.404 0.042 -0.617 v -2.622 c 0 -0.208 -0.015 -0.41 -0.041 -0.604 c -0.01 -0.071 -0.028 -0.137 -0.041 -0.206 c -0.022 -0.118 -0.043 -0.237 -0.074 -0.349 c -0.024 -0.087 -0.057 -0.166 -0.087 -0.248 c -0.03 -0.083 -0.058 -0.167 -0.093 -0.245 c -0.043 -0.095 -0.094 -0.181 -0.144 -0.268 c -0.023 -0.04 -0.042 -0.086 -0.067 -0.124 c 0.037 -0.059 0.066 -0.127 0.1 -0.19 c 0.034 -0.063 0.07 -0.124 0.101 -0.192 c 0.044 -0.097 0.08 -0.202 0.116 -0.307 c 0.024 -0.069 0.051 -0.134 0.071 -0.205 c 0.034 -0.121 0.057 -0.25 0.081 -0.38 c 0.012 -0.064 0.028 -0.124 0.037 -0.19 c 0.027 -0.199 0.042 -0.405 0.042 -0.618 v -2.622 c 0 -0.208 -0.015 -0.41 -0.041 -0.604 c -0.01 -0.071 -0.028 -0.137 -0.041 -0.206 c -0.022 -0.118 -0.043 -0.237 -0.074 -0.349 c -0.024 -0.087 -0.057 -0.166 -0.087 -0.248 c -0.03 -0.083 -0.058 -0.167 -0.093 -0.245 c -0.043 -0.095 -0.094 -0.181 -0.144 -0.268 c -0.023 -0.04 -0.042 -0.086 -0.067 -0.124 c 0.037 -0.059 0.066 -0.127 0.1 -0.19 c 0.034 -0.063 0.07 -0.124 0.101 -0.192 c 0.044 -0.097 0.08 -0.202 0.116 -0.307 c 0.024 -0.069 0.051 -0.134 0.071 -0.205 c 0.034 -0.121 0.057 -0.25 0.081 -0.38 c 0.012 -0.064 0.028 -0.124 0.037 -0.19 c 0.027 -0.199 0.042 -0.405 0.042 -0.618 v -2.623 c 0 -0.208 -0.015 -0.41 -0.041 -0.604 c -0.009 -0.07 -0.028 -0.134 -0.04 -0.203 c -0.022 -0.12 -0.043 -0.24 -0.075 -0.352 c -0.024 -0.084 -0.056 -0.16 -0.084 -0.24 c -0.031 -0.086 -0.06 -0.174 -0.097 -0.254 c -0.041 -0.09 -0.089 -0.172 -0.137 -0.255 c -0.025 -0.044 -0.046 -0.094 -0.073 -0.136 c 0.037 -0.059 0.066 -0.127 0.1 -0.19 c 0.034 -0.063 0.07 -0.124 0.101 -0.192 c 0.044 -0.097 0.079 -0.201 0.115 -0.305 c 0.024 -0.07 0.051 -0.136 0.072 -0.208 c 0.034 -0.12 0.056 -0.247 0.08 -0.374 c 0.012 -0.066 0.029 -0.128 0.038 -0.195 c 0.027 -0.199 0.042 -0.404 0.042 -0.617 v -2.623 c 0 -0.208 -0.015 -0.41 -0.041 -0.604 c -0.01 -0.072 -0.028 -0.137 -0.041 -0.207 c -0.022 -0.118 -0.043 -0.236 -0.074 -0.347 c -0.025 -0.087 -0.058 -0.166 -0.087 -0.249 c -0.03 -0.083 -0.058 -0.167 -0.093 -0.245 c -0.042 -0.094 -0.092 -0.178 -0.142 -0.264 c -0.024 -0.041 -0.043 -0.089 -0.069 -0.128 c 0.036 -0.057 0.064 -0.123 0.096 -0.184 c 0.036 -0.066 0.073 -0.13 0.105 -0.2 c 0.043 -0.095 0.078 -0.197 0.113 -0.298 c 0.025 -0.071 0.053 -0.139 0.074 -0.214 c 0.033 -0.119 0.056 -0.246 0.079 -0.372 c 0.012 -0.066 0.029 -0.128 0.038 -0.197 c 0.027 -0.199 0.042 -0.404 0.042 -0.617 v -2.623 c 0 -0.208 -0.015 -0.41 -0.041 -0.604 c -0.01 -0.072 -0.028 -0.137 -0.041 -0.207 c -0.022 -0.118 -0.043 -0.236 -0.074 -0.347 c -0.024 -0.087 -0.057 -0.166 -0.087 -0.248 c -0.03 -0.083 -0.058 -0.167 -0.093 -0.245 c -0.042 -0.094 -0.093 -0.179 -0.142 -0.265 c -0.024 -0.041 -0.043 -0.088 -0.069 -0.128 c 0.036 -0.057 0.065 -0.125 0.098 -0.186 c 0.035 -0.065 0.072 -0.127 0.103 -0.196 c 0.044 -0.096 0.079 -0.199 0.115 -0.303 c 0.024 -0.07 0.052 -0.136 0.072 -0.209 c 0.034 -0.12 0.057 -0.248 0.08 -0.376 c 0.012 -0.065 0.029 -0.126 0.038 -0.193 c 0.027 -0.199 0.042 -0.404 0.042 -0.617 v -2.623 c 0 -0.002 0 -0.004 0 -0.006 H 88 V 70.972 z" style="stroke: none; stroke-width: 1; stroke-dasharray: none; stroke-linecap: butt; stroke-linejoin: miter; stroke-miterlimit: 10; fill: rgb(0,0,0); fill-rule: nonzero; opacity: 1;" transform=" matrix(1 0 0 1 0 0) " stroke-linecap="round" />
</g>
</svg>